<?xml version="1.0" encoding="UTF-8" standalone="no"?>
<!DOCTYPE svg PUBLIC "-//W3C//DTD SVG 1.1//EN" "http://www.w3.org/Graphics/SVG/1.1/DTD/svg11.dtd">
<svg width="900" height="900" viewBox="-50 -50 900 900" xmlns="http://www.w3.org/2000/svg" xmlns:xlink="http://www.w3.org/1999/xlink">
<rect x="-50" y="-50" width="900" height="900" rx="auto" ry="auto" fill="#FFFFFF" fill-opacity="1e0" stroke="none" stroke-opacity="1e0" stroke-width="1" opacity="1e0" />
<text x="400" y="-8" dx="0" dy="0" textLength="none" fill="#000000" fill-opacity="1" stroke="none" stroke-opacity="1" stroke-width="1" opacity="1" font-family="sans-serif" font-size="20px" font-weight="bold" text-anchor="middle" dominant-baseline="text-after-edge" >Vitesse aréolaire en fonction du temps</text>
<line x1="45.714287" y1="0" x2="45.714287" y2="800" stroke="#000000" stroke-opacity="1" stroke-width="2" stroke-linecap="butt" opacity="0.2" />
<line x1="171.42857" y1="0" x2="171.42857" y2="800" stroke="#000000" stroke-opacity="1" stroke-width="2" stroke-linecap="butt" opacity="0.2" />
<line x1="297.14285" y1="0" x2="297.14285" y2="800" stroke="#000000" stroke-opacity="1" stroke-width="2" stroke-linecap="butt" opacity="0.2" />
<line x1="422.85715" y1="0" x2="422.85715" y2="800" stroke="#000000" stroke-opacity="1" stroke-width="2" stroke-linecap="butt" opacity="0.2" />
<line x1="548.5714" y1="0" x2="548.5714" y2="800" stroke="#000000" stroke-opacity="1" stroke-width="2" stroke-linecap="butt" opacity="0.2" />
<line x1="674.2857" y1="0" x2="674.2857" y2="800" stroke="#000000" stroke-opacity="1" stroke-width="2" stroke-linecap="butt" opacity="0.2" />
<line x1="0" y1="800" x2="800" y2="800" stroke="#000000" stroke-opacity="1" stroke-width="2" stroke-linecap="butt" opacity="0.2" />
<line x1="0" y1="666.6667" x2="800" y2="666.6667" stroke="#000000" stroke-opacity="1" stroke-width="2" stroke-linecap="butt" opacity="0.2" />
<line x1="0" y1="533.3334" x2="800" y2="533.3334" stroke="#000000" stroke-opacity="1" stroke-width="2" stroke-linecap="butt" opacity="0.2" />
<line x1="0" y1="400" x2="800" y2="400" stroke="#000000" stroke-opacity="1" stroke-width="2" stroke-linecap="butt" opacity="0.2" />
<line x1="0" y1="266.6667" x2="800" y2="266.6667" stroke="#000000" stroke-opacity="1" stroke-width="2" stroke-linecap="butt" opacity="0.2" />
<line x1="0" y1="133.33337" x2="800" y2="133.33337" stroke="#000000" stroke-opacity="1" stroke-width="2" stroke-linecap="butt" opacity="0.2" />
<path d="M 0 458.72665 C 0 458.72665 45.714287 490.07602 45.714287 490.07602 C 45.714287 490.07602 91.42857 461.04086 91.42857 461.04086 C 91.42857 461.04086 137.14285 439.55176 137.14285 439.55176 C 137.14285 439.55176 182.85715 463.82916 182.85715 463.82916 C 182.85715 463.82916 228.57143 465.01187 228.57143 465.01187 C 228.57143 465.01187 274.2857 471.74957 274.2857 471.74957 C 274.2857 471.74957 320 482.97614 320 482.97614 C 320 482.97614 365.7143 489.24188 365.7143 489.24188 C 365.7143 489.24188 400 502.20825 400 502.20825 C 400 502.20825 434.28574 518.985 434.28574 518.985 C 434.28574 518.985 468.57144 535.08124 468.57144 535.08124 C 468.57144 535.08124 502.85715 551.41516 502.85715 551.41516 C 502.85715 551.41516 537.1429 561.0831 537.1429 561.0831 C 537.1429 561.0831 571.4286 562.86285 571.4286 562.86285 C 571.4286 562.86285 605.7143 553.8612 605.7143 553.8612 C 605.7143 553.8612 651.4286 521.26746 651.4286 521.26746 C 651.4286 521.26746 685.7143 456.96606 685.7143 456.96606 C 685.7143 456.96606 720 398.07837 720 398.07837 C 720 398.07837 754.2857 339.1539 754.2857 339.1539 C 754.2857 339.1539 777.1429 287.70135 777.1429 287.70135 C 777.1429 287.70135 800 266.74872 800 266.74872 " fill="none" fill-opacity="1" stroke="#BD00AD" stroke-opacity="1" stroke-width="2" opacity="1" />
<line x1="45.714287" y1="0" x2="45.714287" y2="800" stroke="#000000" stroke-opacity="1" stroke-width="2" stroke-linecap="butt" opacity="1" />
<rect x="0" y="0" width="800" height="800" rx="auto" ry="auto" fill="none" fill-opacity="1e0" stroke="#000000" stroke-opacity="1e0" stroke-width="4" opacity="1e0" />
<text x="45.714287" y="810" dx="0" dy="0" textLength="none" fill="#000000" fill-opacity="1" stroke="none" stroke-opacity="1" stroke-width="1" opacity="1" font-family="sans-serif" font-size="10px" font-weight="normal" text-anchor="middle" dominant-baseline="hanging" >0.00</text>
<text x="171.42857" y="810" dx="0" dy="0" textLength="none" fill="#000000" fill-opacity="1" stroke="none" stroke-opacity="1" stroke-width="1" opacity="1" font-family="sans-serif" font-size="10px" font-weight="normal" text-anchor="middle" dominant-baseline="hanging" >330.00</text>
<text x="297.14285" y="810" dx="0" dy="0" textLength="none" fill="#000000" fill-opacity="1" stroke="none" stroke-opacity="1" stroke-width="1" opacity="1" font-family="sans-serif" font-size="10px" font-weight="normal" text-anchor="middle" dominant-baseline="hanging" >660.00</text>
<text x="422.85715" y="810" dx="0" dy="0" textLength="none" fill="#000000" fill-opacity="1" stroke="none" stroke-opacity="1" stroke-width="1" opacity="1" font-family="sans-serif" font-size="10px" font-weight="normal" text-anchor="middle" dominant-baseline="hanging" >990.00</text>
<text x="548.5714" y="810" dx="0" dy="0" textLength="none" fill="#000000" fill-opacity="1" stroke="none" stroke-opacity="1" stroke-width="1" opacity="1" font-family="sans-serif" font-size="10px" font-weight="normal" text-anchor="middle" dominant-baseline="hanging" >1320.00</text>
<text x="674.2857" y="810" dx="0" dy="0" textLength="none" fill="#000000" fill-opacity="1" stroke="none" stroke-opacity="1" stroke-width="1" opacity="1" font-family="sans-serif" font-size="10px" font-weight="normal" text-anchor="middle" dominant-baseline="hanging" >1650.00</text>
<text x="-10" y="800" dx="0" dy="0" textLength="none" fill="#000000" fill-opacity="1" stroke="none" stroke-opacity="1" stroke-width="1" opacity="1" font-family="sans-serif" font-size="10px" font-weight="normal" text-anchor="end" dominant-baseline="middle" >26283727000.00</text>
<text x="-10" y="666.6667" dx="0" dy="0" textLength="none" fill="#000000" fill-opacity="1" stroke="none" stroke-opacity="1" stroke-width="1" opacity="1" font-family="sans-serif" font-size="10px" font-weight="normal" text-anchor="end" dominant-baseline="middle" >27925766000.00</text>
<text x="-10" y="533.3334" dx="0" dy="0" textLength="none" fill="#000000" fill-opacity="1" stroke="none" stroke-opacity="1" stroke-width="1" opacity="1" font-family="sans-serif" font-size="10px" font-weight="normal" text-anchor="end" dominant-baseline="middle" >29567803000.00</text>
<text x="-10" y="400" dx="0" dy="0" textLength="none" fill="#000000" fill-opacity="1" stroke="none" stroke-opacity="1" stroke-width="1" opacity="1" font-family="sans-serif" font-size="10px" font-weight="normal" text-anchor="end" dominant-baseline="middle" >31209845000.00</text>
<text x="-10" y="266.6667" dx="0" dy="0" textLength="none" fill="#000000" fill-opacity="1" stroke="none" stroke-opacity="1" stroke-width="1" opacity="1" font-family="sans-serif" font-size="10px" font-weight="normal" text-anchor="end" dominant-baseline="middle" >32851882000.00</text>
<text x="-10" y="133.33337" dx="0" dy="0" textLength="none" fill="#000000" fill-opacity="1" stroke="none" stroke-opacity="1" stroke-width="1" opacity="1" font-family="sans-serif" font-size="10px" font-weight="normal" text-anchor="end" dominant-baseline="middle" >34493923000.00</text>
<rect x="650" y="768" width="140" height="22" rx="auto" ry="auto" fill="#FFFFFF" fill-opacity="1e0" stroke="#000000" stroke-opacity="1e0" stroke-width="2" opacity="1e0" />
<rect x="655" y="773" width="10" height="10" rx="auto" ry="auto" fill="#BD00AD" fill-opacity="1e0" stroke="none" stroke-opacity="1e0" stroke-width="1" opacity="1e0" />
<text x="670" y="778" dx="0" dy="0" textLength="none" fill="#000000" fill-opacity="1" stroke="none" stroke-opacity="1" stroke-width="1" opacity="1" font-family="sans-serif" font-size="10px" font-weight="normal" text-anchor="start" dominant-baseline="middle" >Vitesse aréolaire</text>
</svg>