<?xml version="1.0" encoding="UTF-8" standalone="no"?>
<!DOCTYPE svg PUBLIC "-//W3C//DTD SVG 1.1//EN" "http://www.w3.org/Graphics/SVG/1.1/DTD/svg11.dtd">
<svg width="900" height="900" viewBox="-50 -50 900 900" xmlns="http://www.w3.org/2000/svg" xmlns:xlink="http://www.w3.org/1999/xlink">
<rect x="-50" y="-50" width="900" height="900" rx="auto" ry="auto" fill="#FFFFFF" fill-opacity="1e0" stroke="none" stroke-opacity="1e0" stroke-width="1" opacity="1e0" />
<text x="400" y="-8" dx="0" dy="0" textLength="none" fill="#000000" fill-opacity="1" stroke="none" stroke-opacity="1" stroke-width="1" opacity="1" font-family="sans-serif" font-size="20px" font-weight="bold" text-anchor="middle" dominant-baseline="text-after-edge" >Rayon en fonction du temps</text>
<line x1="45.714287" y1="0" x2="45.714287" y2="800" stroke="#000000" stroke-opacity="1" stroke-width="2" stroke-linecap="butt" opacity="0.2" />
<line x1="171.42857" y1="0" x2="171.42857" y2="800" stroke="#000000" stroke-opacity="1" stroke-width="2" stroke-linecap="butt" opacity="0.2" />
<line x1="297.14285" y1="0" x2="297.14285" y2="800" stroke="#000000" stroke-opacity="1" stroke-width="2" stroke-linecap="butt" opacity="0.2" />
<line x1="422.85715" y1="0" x2="422.85715" y2="800" stroke="#000000" stroke-opacity="1" stroke-width="2" stroke-linecap="butt" opacity="0.2" />
<line x1="548.5714" y1="0" x2="548.5714" y2="800" stroke="#000000" stroke-opacity="1" stroke-width="2" stroke-linecap="butt" opacity="0.2" />
<line x1="674.2857" y1="0" x2="674.2857" y2="800" stroke="#000000" stroke-opacity="1" stroke-width="2" stroke-linecap="butt" opacity="0.2" />
<line x1="0" y1="800" x2="800" y2="800" stroke="#000000" stroke-opacity="1" stroke-width="2" stroke-linecap="butt" opacity="0.2" />
<line x1="0" y1="666.6667" x2="800" y2="666.6667" stroke="#000000" stroke-opacity="1" stroke-width="2" stroke-linecap="butt" opacity="0.2" />
<line x1="0" y1="533.3334" x2="800" y2="533.3334" stroke="#000000" stroke-opacity="1" stroke-width="2" stroke-linecap="butt" opacity="0.2" />
<line x1="0" y1="400" x2="800" y2="400" stroke="#000000" stroke-opacity="1" stroke-width="2" stroke-linecap="butt" opacity="0.2" />
<line x1="0" y1="266.6667" x2="800" y2="266.6667" stroke="#000000" stroke-opacity="1" stroke-width="2" stroke-linecap="butt" opacity="0.2" />
<line x1="0" y1="133.33337" x2="800" y2="133.33337" stroke="#000000" stroke-opacity="1" stroke-width="2" stroke-linecap="butt" opacity="0.2" />
<path d="M 0 145.10461 C 0 145.10461 45.714287 202.23694 45.714287 202.23694 C 45.714287 202.23694 91.42857 259.42468 91.42857 259.42468 C 91.42857 259.42468 137.14285 316.3324 137.14285 316.3324 C 137.14285 316.3324 182.85715 372.53375 182.85715 372.53375 C 182.85715 372.53375 228.57143 427.48886 228.57143 427.48886 C 228.57143 427.48886 274.2857 480.5198 274.2857 480.5198 C 274.2857 480.5198 320 530.79846 320 530.79846 C 320 530.79846 365.7143 577.3167 365.7143 577.3167 C 365.7143 577.3167 400 609.0465 400 609.0465 C 400 609.0465 434.28574 637.4733 434.28574 637.4733 C 434.28574 637.4733 468.57144 662.0355 468.57144 662.0355 C 468.57144 662.0355 502.85715 682.1811 502.85715 682.1811 C 502.85715 682.1811 537.1429 697.4053 537.1429 697.4053 C 537.1429 697.4053 571.4286 707.2859 571.4286 707.2859 C 571.4286 707.2859 605.7143 711.5388 605.7143 711.5388 C 605.7143 711.5388 651.4286 708.2561 651.4286 708.2561 C 651.4286 708.2561 685.7143 699.1833 685.7143 699.1833 C 685.7143 699.1833 720 684.7304 720 684.7304 C 720 684.7304 754.2857 665.43866 754.2857 665.43866 C 754.2857 665.43866 777.1429 649.8302 777.1429 649.8302 C 777.1429 649.8302 800 632.5276 800 632.5276 " fill="none" fill-opacity="1" stroke="#F94800" stroke-opacity="1" stroke-width="2" opacity="1" />
<line x1="45.714287" y1="0" x2="45.714287" y2="800" stroke="#000000" stroke-opacity="1" stroke-width="2" stroke-linecap="butt" opacity="1" />
<rect x="0" y="0" width="800" height="800" rx="auto" ry="auto" fill="none" fill-opacity="1e0" stroke="#000000" stroke-opacity="1e0" stroke-width="4" opacity="1e0" />
<text x="45.714287" y="810" dx="0" dy="0" textLength="none" fill="#000000" fill-opacity="1" stroke="none" stroke-opacity="1" stroke-width="1" opacity="1" font-family="sans-serif" font-size="10px" font-weight="normal" text-anchor="middle" dominant-baseline="hanging" >0.00</text>
<text x="171.42857" y="810" dx="0" dy="0" textLength="none" fill="#000000" fill-opacity="1" stroke="none" stroke-opacity="1" stroke-width="1" opacity="1" font-family="sans-serif" font-size="10px" font-weight="normal" text-anchor="middle" dominant-baseline="hanging" >330.00</text>
<text x="297.14285" y="810" dx="0" dy="0" textLength="none" fill="#000000" fill-opacity="1" stroke="none" stroke-opacity="1" stroke-width="1" opacity="1" font-family="sans-serif" font-size="10px" font-weight="normal" text-anchor="middle" dominant-baseline="hanging" >660.00</text>
<text x="422.85715" y="810" dx="0" dy="0" textLength="none" fill="#000000" fill-opacity="1" stroke="none" stroke-opacity="1" stroke-width="1" opacity="1" font-family="sans-serif" font-size="10px" font-weight="normal" text-anchor="middle" dominant-baseline="hanging" >990.00</text>
<text x="548.5714" y="810" dx="0" dy="0" textLength="none" fill="#000000" fill-opacity="1" stroke="none" stroke-opacity="1" stroke-width="1" opacity="1" font-family="sans-serif" font-size="10px" font-weight="normal" text-anchor="middle" dominant-baseline="hanging" >1320.00</text>
<text x="674.2857" y="810" dx="0" dy="0" textLength="none" fill="#000000" fill-opacity="1" stroke="none" stroke-opacity="1" stroke-width="1" opacity="1" font-family="sans-serif" font-size="10px" font-weight="normal" text-anchor="middle" dominant-baseline="hanging" >1650.00</text>
<text x="-10" y="800" dx="0" dy="0" textLength="none" fill="#000000" fill-opacity="1" stroke="none" stroke-opacity="1" stroke-width="1" opacity="1" font-family="sans-serif" font-size="10px" font-weight="normal" text-anchor="end" dominant-baseline="middle" >5883723.00</text>
<text x="-10" y="666.6667" dx="0" dy="0" textLength="none" fill="#000000" fill-opacity="1" stroke="none" stroke-opacity="1" stroke-width="1" opacity="1" font-family="sans-serif" font-size="10px" font-weight="normal" text-anchor="end" dominant-baseline="middle" >6869084.50</text>
<text x="-10" y="533.3334" dx="0" dy="0" textLength="none" fill="#000000" fill-opacity="1" stroke="none" stroke-opacity="1" stroke-width="1" opacity="1" font-family="sans-serif" font-size="10px" font-weight="normal" text-anchor="end" dominant-baseline="middle" >7854446.50</text>
<text x="-10" y="400" dx="0" dy="0" textLength="none" fill="#000000" fill-opacity="1" stroke="none" stroke-opacity="1" stroke-width="1" opacity="1" font-family="sans-serif" font-size="10px" font-weight="normal" text-anchor="end" dominant-baseline="middle" >8839808.00</text>
<text x="-10" y="266.6667" dx="0" dy="0" textLength="none" fill="#000000" fill-opacity="1" stroke="none" stroke-opacity="1" stroke-width="1" opacity="1" font-family="sans-serif" font-size="10px" font-weight="normal" text-anchor="end" dominant-baseline="middle" >9825170.00</text>
<text x="-10" y="133.33337" dx="0" dy="0" textLength="none" fill="#000000" fill-opacity="1" stroke="none" stroke-opacity="1" stroke-width="1" opacity="1" font-family="sans-serif" font-size="10px" font-weight="normal" text-anchor="end" dominant-baseline="middle" >10810532.00</text>
<rect x="736.6667" y="768" width="53.333332" height="22" rx="auto" ry="auto" fill="#FFFFFF" fill-opacity="1e0" stroke="#000000" stroke-opacity="1e0" stroke-width="2" opacity="1e0" />
<rect x="741.6667" y="773" width="10" height="10" rx="auto" ry="auto" fill="#F94800" fill-opacity="1e0" stroke="none" stroke-opacity="1e0" stroke-width="1" opacity="1e0" />
<text x="756.6667" y="778" dx="0" dy="0" textLength="none" fill="#000000" fill-opacity="1" stroke="none" stroke-opacity="1" stroke-width="1" opacity="1" font-family="sans-serif" font-size="10px" font-weight="normal" text-anchor="start" dominant-baseline="middle" >Rayon</text>
</svg>