<?xml version="1.0" encoding="UTF-8" standalone="no"?>
<!DOCTYPE svg PUBLIC "-//W3C//DTD SVG 1.1//EN" "http://www.w3.org/Graphics/SVG/1.1/DTD/svg11.dtd">
<svg width="900" height="900" viewBox="-50 -50 900 900" xmlns="http://www.w3.org/2000/svg" xmlns:xlink="http://www.w3.org/1999/xlink">
<rect x="-50" y="-50" width="900" height="900" rx="auto" ry="auto" fill="#FFFFFF" fill-opacity="1e0" stroke="none" stroke-opacity="1e0" stroke-width="1" opacity="1e0" />
<text x="400" y="-8" dx="0" dy="0" textLength="none" fill="#000000" fill-opacity="1" stroke="none" stroke-opacity="1" stroke-width="1" opacity="1" font-family="sans-serif" font-size="20px" font-weight="bold" text-anchor="middle" dominant-baseline="text-after-edge" >Vitesse en fonction du temps</text>
<line x1="45.714287" y1="0" x2="45.714287" y2="800" stroke="#000000" stroke-opacity="1" stroke-width="2" stroke-linecap="butt" opacity="0.2" />
<line x1="171.42857" y1="0" x2="171.42857" y2="800" stroke="#000000" stroke-opacity="1" stroke-width="2" stroke-linecap="butt" opacity="0.2" />
<line x1="297.14285" y1="0" x2="297.14285" y2="800" stroke="#000000" stroke-opacity="1" stroke-width="2" stroke-linecap="butt" opacity="0.2" />
<line x1="422.85715" y1="0" x2="422.85715" y2="800" stroke="#000000" stroke-opacity="1" stroke-width="2" stroke-linecap="butt" opacity="0.2" />
<line x1="548.5714" y1="0" x2="548.5714" y2="800" stroke="#000000" stroke-opacity="1" stroke-width="2" stroke-linecap="butt" opacity="0.2" />
<line x1="674.2857" y1="0" x2="674.2857" y2="800" stroke="#000000" stroke-opacity="1" stroke-width="2" stroke-linecap="butt" opacity="0.2" />
<line x1="0" y1="800" x2="800" y2="800" stroke="#000000" stroke-opacity="1" stroke-width="2" stroke-linecap="butt" opacity="0.2" />
<line x1="0" y1="666.6667" x2="800" y2="666.6667" stroke="#000000" stroke-opacity="1" stroke-width="2" stroke-linecap="butt" opacity="0.2" />
<line x1="0" y1="533.3334" x2="800" y2="533.3334" stroke="#000000" stroke-opacity="1" stroke-width="2" stroke-linecap="butt" opacity="0.2" />
<line x1="0" y1="400" x2="800" y2="400" stroke="#000000" stroke-opacity="1" stroke-width="2" stroke-linecap="butt" opacity="0.2" />
<line x1="0" y1="266.6667" x2="800" y2="266.6667" stroke="#000000" stroke-opacity="1" stroke-width="2" stroke-linecap="butt" opacity="0.2" />
<line x1="0" y1="133.33337" x2="800" y2="133.33337" stroke="#000000" stroke-opacity="1" stroke-width="2" stroke-linecap="butt" opacity="0.2" />
<path d="M 0 400.8466 C 0 400.8466 45.714287 763.2165 45.714287 763.2165 C 45.714287 763.2165 91.42857 748.25183 91.42857 748.25183 C 91.42857 748.25183 137.14285 733.27277 137.14285 733.27277 C 137.14285 733.27277 182.85715 723.4976 182.85715 723.4976 C 182.85715 723.4976 228.57143 710.41223 228.57143 710.41223 C 228.57143 710.41223 274.2857 697.8713 274.2857 697.8713 C 274.2857 697.8713 320 686.1009 320 686.1009 C 320 686.1009 365.7143 676.1828 365.7143 676.1828 C 365.7143 676.1828 400 668.1249 400 668.1249 C 400 668.1249 434.28574 662.6804 434.28574 662.6804 C 434.28574 662.6804 468.57144 658.2416 468.57144 658.2416 C 468.57144 658.2416 502.85715 655.21155 502.85715 655.21155 C 502.85715 655.21155 537.1429 652.41064 537.1429 652.41064 C 537.1429 652.41064 571.4286 649.6688 571.4286 649.6688 C 571.4286 649.6688 605.7143 645.6101 605.7143 645.6101 C 605.7143 645.6101 651.4286 639.6407 651.4286 639.6407 C 651.4286 639.6407 685.7143 630.74524 685.7143 630.74524 C 685.7143 630.74524 720 624.0398 720 624.0398 C 720 624.0398 754.2857 619.0435 754.2857 619.0435 C 754.2857 619.0435 777.1429 616.7548 777.1429 616.7548 C 777.1429 616.7548 800 102.822815 800 102.822815 " fill="none" fill-opacity="1" stroke="#0084FF" stroke-opacity="1" stroke-width="2" opacity="1" />
<line x1="45.714287" y1="0" x2="45.714287" y2="800" stroke="#000000" stroke-opacity="1" stroke-width="2" stroke-linecap="butt" opacity="1" />
<rect x="0" y="0" width="800" height="800" rx="auto" ry="auto" fill="none" fill-opacity="1e0" stroke="#000000" stroke-opacity="1e0" stroke-width="4" opacity="1e0" />
<text x="45.714287" y="810" dx="0" dy="0" textLength="none" fill="#000000" fill-opacity="1" stroke="none" stroke-opacity="1" stroke-width="1" opacity="1" font-family="sans-serif" font-size="10px" font-weight="normal" text-anchor="middle" dominant-baseline="hanging" >0.00</text>
<text x="171.42857" y="810" dx="0" dy="0" textLength="none" fill="#000000" fill-opacity="1" stroke="none" stroke-opacity="1" stroke-width="1" opacity="1" font-family="sans-serif" font-size="10px" font-weight="normal" text-anchor="middle" dominant-baseline="hanging" >330.00</text>
<text x="297.14285" y="810" dx="0" dy="0" textLength="none" fill="#000000" fill-opacity="1" stroke="none" stroke-opacity="1" stroke-width="1" opacity="1" font-family="sans-serif" font-size="10px" font-weight="normal" text-anchor="middle" dominant-baseline="hanging" >660.00</text>
<text x="422.85715" y="810" dx="0" dy="0" textLength="none" fill="#000000" fill-opacity="1" stroke="none" stroke-opacity="1" stroke-width="1" opacity="1" font-family="sans-serif" font-size="10px" font-weight="normal" text-anchor="middle" dominant-baseline="hanging" >990.00</text>
<text x="548.5714" y="810" dx="0" dy="0" textLength="none" fill="#000000" fill-opacity="1" stroke="none" stroke-opacity="1" stroke-width="1" opacity="1" font-family="sans-serif" font-size="10px" font-weight="normal" text-anchor="middle" dominant-baseline="hanging" >1320.00</text>
<text x="674.2857" y="810" dx="0" dy="0" textLength="none" fill="#000000" fill-opacity="1" stroke="none" stroke-opacity="1" stroke-width="1" opacity="1" font-family="sans-serif" font-size="10px" font-weight="normal" text-anchor="middle" dominant-baseline="hanging" >1650.00</text>
<text x="-10" y="800" dx="0" dy="0" textLength="none" fill="#000000" fill-opacity="1" stroke="none" stroke-opacity="1" stroke-width="1" opacity="1" font-family="sans-serif" font-size="10px" font-weight="normal" text-anchor="end" dominant-baseline="middle" >3077.28</text>
<text x="-10" y="666.6667" dx="0" dy="0" textLength="none" fill="#000000" fill-opacity="1" stroke="none" stroke-opacity="1" stroke-width="1" opacity="1" font-family="sans-serif" font-size="10px" font-weight="normal" text-anchor="end" dominant-baseline="middle" >4316.68</text>
<text x="-10" y="533.3334" dx="0" dy="0" textLength="none" fill="#000000" fill-opacity="1" stroke="none" stroke-opacity="1" stroke-width="1" opacity="1" font-family="sans-serif" font-size="10px" font-weight="normal" text-anchor="end" dominant-baseline="middle" >5556.08</text>
<text x="-10" y="400" dx="0" dy="0" textLength="none" fill="#000000" fill-opacity="1" stroke="none" stroke-opacity="1" stroke-width="1" opacity="1" font-family="sans-serif" font-size="10px" font-weight="normal" text-anchor="end" dominant-baseline="middle" >6795.48</text>
<text x="-10" y="266.6667" dx="0" dy="0" textLength="none" fill="#000000" fill-opacity="1" stroke="none" stroke-opacity="1" stroke-width="1" opacity="1" font-family="sans-serif" font-size="10px" font-weight="normal" text-anchor="end" dominant-baseline="middle" >8034.88</text>
<text x="-10" y="133.33337" dx="0" dy="0" textLength="none" fill="#000000" fill-opacity="1" stroke="none" stroke-opacity="1" stroke-width="1" opacity="1" font-family="sans-serif" font-size="10px" font-weight="normal" text-anchor="end" dominant-baseline="middle" >9274.28</text>
<rect x="723.3333" y="768" width="66.66667" height="22" rx="auto" ry="auto" fill="#FFFFFF" fill-opacity="1e0" stroke="#000000" stroke-opacity="1e0" stroke-width="2" opacity="1e0" />
<rect x="728.3333" y="773" width="10" height="10" rx="auto" ry="auto" fill="#0084FF" fill-opacity="1e0" stroke="none" stroke-opacity="1e0" stroke-width="1" opacity="1e0" />
<text x="743.3333" y="778" dx="0" dy="0" textLength="none" fill="#000000" fill-opacity="1" stroke="none" stroke-opacity="1" stroke-width="1" opacity="1" font-family="sans-serif" font-size="10px" font-weight="normal" text-anchor="start" dominant-baseline="middle" >Vitesse</text>
</svg>